<?xml version="1.0" encoding="UTF-8" standalone="no"?>
<!--
SPDX-License-Identifier: LGPL-2.0-or-later
SPDX-FileCopyrightText: 2023 Helden Hoierman
-->

<svg
   width="64"
   height="64"
   viewBox="0 0 64 64"
   version="1.1"
   id="svg1525"
   xmlns:xlink="http://www.w3.org/1999/xlink"
   xmlns="http://www.w3.org/2000/svg"
   xmlns:svg="http://www.w3.org/2000/svg">
  <defs
     id="defs1522">
    <linearGradient
       id="linearGradient22638">
      <stop
         style="stop-color:#4b8383;stop-opacity:1;"
         offset="0"
         id="stop22634" />
      <stop
         style="stop-color:#213c3c;stop-opacity:1;"
         offset="1"
         id="stop22636" />
    </linearGradient>
    <linearGradient
       id="linearGradient18441">
      <stop
         style="stop-color:#003131;stop-opacity:1;"
         offset="0"
         id="stop18437" />
      <stop
         style="stop-color:#004646;stop-opacity:0;"
         offset="1"
         id="stop18439" />
    </linearGradient>
    <linearGradient
       id="linearGradient17747">
      <stop
         style="stop-color:#a4f6f3;stop-opacity:1;"
         offset="0"
         id="stop41484" />
      <stop
         style="stop-color:#9ee9e5;stop-opacity:1;"
         offset="0.19727892"
         id="stop17743" />
      <stop
         style="stop-color:#76bac1;stop-opacity:1;"
         offset="0.7448979"
         id="stop17745" />
      <stop
         style="stop-color:#578f9b;stop-opacity:1;"
         offset="1"
         id="stop41482" />
    </linearGradient>
    <linearGradient
       xlink:href="#linearGradient22638"
       id="linearGradient12075"
       x1="17.204638"
       y1="12.5625"
       x2="31.686901"
       y2="27.044764"
       gradientUnits="userSpaceOnUse"
       gradientTransform="matrix(1.0116279,0,0,1.0116279,-0.27906299,0.35514022)" />
    <linearGradient
       xlink:href="#linearGradient18441"
       id="linearGradient18443"
       x1="22.836456"
       y1="21.756983"
       x2="33.09375"
       y2="31.910156"
       gradientUnits="userSpaceOnUse"
       gradientTransform="translate(0,1.0004883)" />
    <radialGradient
       xlink:href="#linearGradient17747"
       id="radialGradient41486"
       cx="20.46698"
       cy="18.295269"
       fx="20.46698"
       fy="18.295269"
       r="16.026587"
       gradientTransform="matrix(2.4522433,0,0,2.4908504,-34.458738,-35.331041)"
       gradientUnits="userSpaceOnUse" />
    <filter
       style="color-interpolation-filters:sRGB"
       id="filter980"
       x="-0.033195306"
       y="-0.022753475"
       width="1.0663906"
       height="1.045507">
      <feGaussianBlur
         stdDeviation="0.2111358"
         id="feGaussianBlur982" />
    </filter>
    <filter
       style="color-interpolation-filters:sRGB"
       id="filter1617"
       x="-0.0075865961"
       y="-0.0046651904"
       width="1.0151732"
       height="1.0093304">
      <feGaussianBlur
         stdDeviation="0.05914063"
         id="feGaussianBlur1619" />
    </filter>
    <linearGradient
       xlink:href="#linearGradient22638"
       id="linearGradient2544"
       gradientUnits="userSpaceOnUse"
       gradientTransform="matrix(1.0116279,0,0,1.0116279,-0.27906299,0.35514022)"
       x1="17.204638"
       y1="12.5625"
       x2="31.686901"
       y2="27.044764" />
  </defs>
  <g
     id="layer1">
    <g
       id="g8462"
       transform="scale(1.3333333)"
       style="display:inline;opacity:1">
      <path
         id="circle7192"
         style="display:inline;fill:url(#radialGradient41486);fill-opacity:1;stroke-linecap:square;paint-order:markers fill stroke"
         d="M 24.000001,3.0000001 C 16.892473,2.8720368 10.168221,8.0971029 8.5034182,15.001465 c -1.2871826,4.793802 -0.068356,10.0841 2.9985348,13.955567 1.1638,1.484476 2.91053,2.221607 4.630372,6.738281 0.998943,3.375208 0.603735,5.767849 0.870117,6.432129 1.172831,2.65787 4.266969,3.785034 6.996094,3.792481 2.691213,-0.04114 5.907189,-1.170664 7.059082,-3.792481 0.235182,-0.530363 0.141668,-2.068573 0.26842,-3.307231 0.03313,-0.323718 -0.182609,-0.512878 -0.495975,-0.424084 l -2.271721,0.643703 c -0.365733,0.103632 -0.755592,-0.05021 -0.952004,-0.375666 -0.179543,-0.297507 -0.116222,-0.737301 0.141413,-0.98233 1.29619,-1.232768 4.97772,-4.73453 6.986625,-6.649119 0.977887,-1.074356 1.867909,-1.702419 3.643066,-4.958496 C 41.453848,20.132264 40.18681,12.342265 35.374513,7.6860353 32.404416,4.6894906 28.220011,2.9615163 24.000001,3.0000001 Z" />
      <path
         id="path18435"
         style="display:inline;opacity:0.25;fill:url(#linearGradient18443);fill-opacity:1;stroke:none;stroke-width:0.75;stroke-linecap:square;stroke-opacity:1;paint-order:markers fill stroke;filter:url(#filter1617)"
         d="m 28.64502,13.372559 -6.895019,9.00293 -1.202637,12.101074 9.322266,9.320801 c 0.495023,-0.470535 0.904462,-1.02459 1.187988,-1.669922 0.181792,-1.037934 0.141315,-2.06896 0.268066,-3.307617 0.03313,-0.323718 -0.181751,-0.512134 -0.495117,-0.42334 l -2.271973,0.643066 a 0.84338335,0.84338335 0 0 1 -0.952148,-0.375 c -0.179543,-0.297506 -0.11701,-0.737881 0.140625,-0.98291 1.296189,-1.232767 4.978402,-4.734339 6.987305,-6.648926 0.977886,-1.074355 1.867911,-1.702422 3.643066,-4.958496 0.349481,-0.675008 0.64036,-1.374929 0.878907,-2.090332 z" />
      <path
         style="display:inline;fill:url(#linearGradient2544);fill-opacity:1;stroke-width:1.01163;stroke-linecap:square;paint-order:markers fill stroke;filter:url(#filter980)"
         d="m 22.988379,27.193676 v 7.25235 c 0,0.16815 -0.136313,0.304463 -0.304463,0.304463 h -1.524343 c -0.386746,0 -0.755693,-0.308606 -0.830925,-0.687958 -0.898396,-4.53007 -2.164083,-6.995769 -3.797062,-10.213949 -0.346451,-0.682768 -0.113284,-1.603898 0.392214,-2.177951 1.345378,-1.52783 2.018067,-3.66628 2.018067,-6.141073 v -1.208045 c 0,-0.588525 0.505143,-1.170846 1.065617,-1.321025 2.6723,-0.708351 5.356736,-0.678865 7.985045,0 0.559601,0.149945 1.065617,0.68418 1.065617,1.272706 v 1.256364 c 0,2.469115 0.679188,4.630748 2.014174,6.145826 0.505548,0.573747 0.742339,1.490866 0.395613,2.174172 -1.632868,3.217958 -2.898461,5.683751 -3.796779,10.214047 -0.07511,0.378763 -0.443968,0.686886 -0.830712,0.686886 h -1.524345 c -0.16815,0 -0.304462,-0.136313 -0.304462,-0.304463 v -7.25235 c 0,-0.349636 0.103493,-0.69145 0.297435,-0.982364 l 0.539401,-0.809101 c 0.689854,-1.03478 0.553419,-2.41263 -0.325974,-3.292022 l -0.01011,-0.01011 c -0.835272,-0.835271 -2.189515,-0.835271 -3.024786,0 l -0.01012,0.01011 c -0.879391,0.879392 -1.015826,2.257242 -0.325973,3.292022 l 0.539401,0.809101 c 0.193957,0.29091 0.297461,0.632724 0.297472,0.982364 z"
         id="path11412" />
      <path
         style="display:inline;fill:url(#linearGradient12075);fill-opacity:1;stroke-width:1.01163;stroke-linecap:square;paint-order:markers fill stroke"
         d="m 22.988379,27.193676 v 7.25235 c 0,0.16815 -0.136313,0.304463 -0.304463,0.304463 h -1.524343 c -0.386746,0 -0.755693,-0.308606 -0.830925,-0.687958 -0.898396,-4.53007 -2.164083,-6.995769 -3.797062,-10.213949 -0.346451,-0.682768 -0.113284,-1.603898 0.392214,-2.177951 1.345378,-1.52783 2.018067,-3.66628 2.018067,-6.141073 v -1.208045 c 0,-0.588525 0.505143,-1.170846 1.065617,-1.321025 2.6723,-0.708351 5.356736,-0.678865 7.985045,0 0.559601,0.149945 1.065617,0.68418 1.065617,1.272706 v 1.256364 c 0,2.469115 0.679188,4.630748 2.014174,6.145826 0.505548,0.573747 0.742339,1.490866 0.395613,2.174172 -1.632868,3.217958 -2.898461,5.683751 -3.796779,10.214047 -0.07511,0.378763 -0.443968,0.686886 -0.830712,0.686886 h -1.524345 c -0.16815,0 -0.304462,-0.136313 -0.304462,-0.304463 v -7.25235 c 0,-0.349636 0.103493,-0.69145 0.297435,-0.982364 l 0.539401,-0.809101 c 0.689854,-1.03478 0.553419,-2.41263 -0.325974,-3.292022 l -0.01011,-0.01011 c -0.835272,-0.835271 -2.189515,-0.835271 -3.024786,0 l -0.01012,0.01011 c -0.879391,0.879392 -1.015826,2.257242 -0.325973,3.292022 l 0.539401,0.809101 c 0.193957,0.29091 0.297461,0.632724 0.297472,0.982364 z"
         id="path978" />
    </g>
  </g>
</svg>
